<svg xmlns="http://www.w3.org/2000/svg" viewBox="0 0 64 64">
  <defs>
    <linearGradient id="adani" x1="8" x2="56" y1="12" y2="52" gradientUnits="userSpaceOnUse">
      <stop stop-color="#0A78A7"/>
      <stop offset="0.42" stop-color="#4764B7"/>
      <stop offset="0.68" stop-color="#7B55AD"/>
      <stop offset="1" stop-color="#AA337B"/>
    </linearGradient>
  </defs>
  <rect width="64" height="64" rx="14" fill="#F4F8FB"/>
  <path d="M18 43c-4.2 0-7-2.7-7-6.8 0-4.4 3.1-7.1 7.8-7.1 2.2 0 4 .5 5.2 1.3v-1c0-2.5-1.6-3.9-4.5-3.9-1.9 0-3.7.5-5.4 1.4l-1.6-4.7c2.2-1.2 4.9-1.8 8-1.8 6.2 0 9.7 3.1 9.7 8.8V42h-5.8v-1.9c-1.3 1.8-3.5 2.9-6.4 2.9Zm1.8-4.8c2.5 0 4.3-1.3 4.3-3.1 0-1.5-1.5-2.4-3.9-2.4-2.3 0-3.7 1.1-3.7 2.8 0 1.6 1.2 2.7 3.3 2.7Z" fill="url(#adani)"/>
  <path d="M35.3 42V21h5.9v2.3c1.5-1.9 3.6-2.9 6.2-2.9 4.9 0 8.2 3.7 8.2 9.2V42h-6V30.6c0-2.8-1.5-4.6-4-4.6-2.6 0-4.4 1.9-4.4 4.8V42h-5.9Z" fill="url(#adani)"/>
</svg>
